<?xml version="1.0" encoding="utf-8"?>
<!-- Generator: Adobe Illustrator 28.2.0, SVG Export Plug-In . SVG Version: 6.00 Build 0)  -->
<svg version="1.1" id="Layer_1" xmlns="http://www.w3.org/2000/svg" xmlns:xlink="http://www.w3.org/1999/xlink" x="0px" y="0px"
	 viewBox="0 0 100 100" style="enable-background:new 0 0 100 100;" xml:space="preserve">
<g>
	<path d="M78.1,25.9v-5.3c0-1.8-1.4-3.2-3.2-3.2h-2.5c-0.5-4.2-4-7.4-8.3-7.4H35.9c-4.3,0-7.8,3.2-8.3,7.4h-2.5
		c-1.8,0-3.2,1.4-3.2,3.2v5.3c0,1.8,1.4,3.2,3.2,3.2h0.1l2.8,23.1c0.5,4.1,3.5,7.4,7.4,8.4l-4.1,28.2c0,0.3,0,0.6,0.2,0.8
		c0.2,0.2,0.5,0.3,0.8,0.3h35.6c0.3,0,0.6-0.1,0.8-0.3c0.2-0.2,0.3-0.5,0.2-0.8l-4.1-28.2c3.9-1,6.9-4.4,7.4-8.4l2.8-23.1h0.1
		C76.7,29.1,78.1,27.7,78.1,25.9z M35.9,12h28.2c3.2,0,5.8,2.3,6.3,5.4H29.6C30.1,14.3,32.7,12,35.9,12z M70.4,49.5l-8.3-12.1h9.8
		L70.4,49.5z M68.6,50.5H51.8l8.4-12.2L68.6,50.5z M50,49.6l-8.4-12.1h16.8L50,49.6z M48.2,50.5H31.4l8.4-12.2L48.2,50.5z
		 M29.6,49.5l-1.5-12.1H38L29.6,49.5z M62.7,60.8l0.9,5.9H36.4l0.9-5.9H62.7z M35.9,70.4l5.3,8.6h-6.5L35.9,70.4z M37.3,68.8h11.1
		l-5.6,9.1L37.3,68.8z M50,69.9l5.6,9.1H44.4L50,69.9z M51.6,68.8h11.1l-5.6,9.1L51.6,68.8z M64.1,70.4l1.3,8.6h-6.5L64.1,70.4z
		 M33.3,88l1-7h31.3l1,7H33.3z M63.5,58.8H36.5c-3.3-0.5-5.9-3.1-6.5-6.3H70C69.3,55.7,66.8,58.3,63.5,58.8z M72.1,35.5H27.9
		l-0.8-6.4h45.6L72.1,35.5z M76.1,25.9c0,0.7-0.5,1.2-1.2,1.2H25.1c-0.7,0-1.2-0.5-1.2-1.2v-5.3c0-0.7,0.5-1.2,1.2-1.2h49.8
		c0.7,0,1.2,0.5,1.2,1.2V25.9z"/>
</g>
</svg>
