<?xml version="1.0" encoding="utf-8"?>
<!-- Generator: Adobe Illustrator 28.2.0, SVG Export Plug-In . SVG Version: 6.00 Build 0)  -->
<svg version="1.1" id="Layer_1" xmlns="http://www.w3.org/2000/svg" xmlns:xlink="http://www.w3.org/1999/xlink" x="0px" y="0px"
	 viewBox="0 0 100 100" style="enable-background:new 0 0 100 100;" xml:space="preserve">
<g>
	<path d="M53.9,16.9c0.5-0.3,0.9-0.6,1.3-1c1.3-1.3,2.2-3.2,2.2-5.2c0-4.1-3.3-7.4-7.4-7.4c-4.1,0-7.4,3.3-7.4,7.4
		c0,2.6,1.4,5,3.5,6.3C25.9,18.9,10,36,10,56.7c0,22.1,17.9,40,40,40c11,0,21-4.5,28.3-11.7S90,67.8,90,56.7
		C90,36,74.1,18.9,53.9,16.9z M44.6,10.7c0-1.4,0.6-2.8,1.6-3.8c1-1,2.4-1.6,3.8-1.6c1.4,0,2.8,0.6,3.8,1.6c1,1,1.6,2.4,1.6,3.8
		s-0.6,2.8-1.6,3.8c-1,1-2.4,1.6-3.8,1.6C47,16,44.6,13.6,44.6,10.7z M50,94.7c-21,0-38-17-38-38c0-10.5,4.3-20,11.1-26.9
		S39.5,18.7,50,18.7c21,0,38,17,38,38S71,94.7,50,94.7z"/>
	<path d="M50,24.3c-8.7,0-16.8,3.4-22.9,9.5s-9.5,14.3-9.5,22.9c0,17.9,14.5,32.4,32.4,32.4c8.7,0,16.8-3.4,22.9-9.5
		s9.5-14.3,9.5-22.9C82.4,38.9,67.9,24.3,50,24.3z M29.2,78.9l3.4-3.4c0.4-0.4,0.4-1,0-1.4s-1-0.4-1.4,0l-3.4,3.4
		c-4.9-5.2-8-12.2-8.2-19.9l5,0c0.3,0,0.5-0.1,0.7-0.3s0.3-0.4,0.3-0.7c0-0.6-0.4-1-1-1l-5,0C19.9,48,23,41.1,27.8,36l3.3,3.3
		c0.4,0.4,1,0.4,1.4,0c0.4-0.4,0.4-1,0-1.4l-3.3-3.3c5.2-4.9,12.1-7.9,19.7-8.2l0,4.9c0,0.6,0.4,1,1,1c0.3,0,0.5-0.1,0.7-0.3
		c0.2-0.2,0.3-0.4,0.3-0.7l0-4.9c7.6,0.2,14.6,3.3,19.8,8.2L67,38.3c-0.4,0.4-0.4,1,0,1.4c0.4,0.4,1,0.4,1.4,0l3.7-3.7
		c4.9,5.2,7.9,12.1,8.2,19.6l-5,0c-0.6,0-1,0.4-1,1c0,0.6,0.4,1,1,1l5,0c-0.2,7.7-3.3,14.7-8.2,19.9l-3.7-3.7c-0.4-0.4-1-0.4-1.4,0
		c-0.4,0.4-0.4,1,0,1.4l3.7,3.7c-5.2,4.9-12.2,8-19.8,8.2l0-5.2c0-0.6-0.4-1-1-1c-0.6,0-1,0.4-1,1l0,5.2
		C41.4,86.9,34.4,83.8,29.2,78.9z"/>
	<path d="M39.8,69.1l6.3-6.3l2.3,7.2c0.3,0.8,1,1.3,1.8,1.3c0.8,0,1.6-0.5,1.8-1.3l2.4-7.5l6.2,6.2c0.4,0.4,1,0.4,1.4,0
		c0.4-0.4,0.4-1,0-1.4l-6.1-6.1l7.3-2.4c0.3-0.1,0.6-0.3,0.8-0.5c0.3-0.3,0.6-0.8,0.6-1.3c0-0.8-0.5-1.6-1.3-1.8L56,52.9l6.4-6.4
		c0.4-0.4,0.4-1,0-1.4c-0.4-0.4-1-0.4-1.4,0l-6.3,6.3L52,43.2c-0.3-0.8-1-1.3-1.8-1.3c-0.8,0-1.6,0.5-1.8,1.3l-2.5,8l-6.5-6.5
		c-0.4-0.4-1-0.4-1.4,0c-0.4,0.4-0.4,1,0,1.4l6.5,6.5l-8.1,2.6c-0.8,0.3-1.3,1-1.3,1.8c0,0.8,0.5,1.6,1.3,1.8l8.2,2.6l-6.3,6.3
		c-0.4,0.4-0.4,1,0,1.4C38.7,69.5,39.4,69.5,39.8,69.1z M46.2,54.2c0.6-0.2,1-0.6,1.2-1.2l2.8-8.9l2.9,9.2c0.2,0.6,0.6,1,1.2,1.2
		l7.9,2.5l-8.2,2.6c-0.1,0-0.1,0-0.2,0.1c-0.2,0-0.5,0.1-0.6,0.3c-0.1,0.1-0.2,0.3-0.2,0.5c-0.1,0.1-0.2,0.3-0.2,0.4l-2.6,8.2
		l-2.5-7.9c-0.2-0.6-0.6-1-1.2-1.2l-9.2-2.9L46.2,54.2z"/>
</g>
</svg>
