<?xml version="1.0" encoding="utf-8"?>
<!-- Generator: Adobe Illustrator 28.2.0, SVG Export Plug-In . SVG Version: 6.00 Build 0)  -->
<svg version="1.1" id="Layer_1" xmlns="http://www.w3.org/2000/svg" xmlns:xlink="http://www.w3.org/1999/xlink" x="0px" y="0px"
	 viewBox="0 0 100 100" style="enable-background:new 0 0 100 100;" xml:space="preserve">
<g>
	<path d="M50.6,10.2c-0.4-0.3-0.8-0.3-1.2,0l-39,28.5c-0.3,0.3-0.5,0.7-0.4,1.1s0.5,0.7,1,0.7h2.7V89c0,0.6,0.4,1,1,1h70.7
		c0.6,0,1-0.4,1-1V40.5H89c0.4,0,0.8-0.3,1-0.7s0-0.9-0.4-1.1L50.6,10.2z M50,12.2l35.9,26.3H14.1L50,12.2z M15.7,70.8h5.7V88h-5.7
		V70.8z M63,70.8h6V88h-6V70.8z M76.5,70.8V88H71V70.8H76.5z M61,88H39.1V60.1c0-5.9,4.9-10.7,10.9-10.7c6,0,10.9,4.8,10.9,10.7V88z
		 M37.1,88H31V70.8h6.2V88z M29,88h-5.6V70.8H29V88z M78.5,88V70.8h5.9V88H78.5z M84.4,68.8H63v-8.6c0-7-5.8-12.7-12.9-12.7
		s-12.9,5.7-12.9,12.7v8.6H15.7V40.5h68.7V68.8z"/>
	<path d="M22.2,53.4l4-4l4,4c0.2,0.2,0.5,0.3,0.7,0.3c0.3,0,0.5-0.1,0.7-0.3c0.4-0.4,0.4-1,0-1.4l-4.7-4.8c-0.4-0.4-1-0.4-1.4,0
		L20.7,52c-0.4,0.4-0.4,1,0,1.4C21.1,53.8,21.8,53.8,22.2,53.4z"/>
	<path d="M26.9,56.3c-0.4-0.4-1-0.4-1.4,0L20.7,61c-0.4,0.4-0.4,1,0,1.4c0.4,0.4,1,0.4,1.4,0l4-4l4,4c0.2,0.2,0.5,0.3,0.7,0.3
		c0.3,0,0.5-0.1,0.7-0.3c0.4-0.4,0.4-1,0-1.4L26.9,56.3z"/>
	<path d="M69.7,53.4l4-4l4,4c0.2,0.2,0.5,0.3,0.7,0.3c0.3,0,0.5-0.1,0.7-0.3c0.4-0.4,0.4-1,0-1.4l-4.7-4.8c-0.4-0.4-1-0.4-1.4,0
		L68.3,52c-0.4,0.4-0.4,1,0,1.4C68.7,53.8,69.3,53.8,69.7,53.4z"/>
	<path d="M69.7,62.4l4-4l4,4c0.2,0.2,0.5,0.3,0.7,0.3c0.3,0,0.5-0.1,0.7-0.3c0.4-0.4,0.4-1,0-1.4l-4.7-4.8c-0.4-0.4-1-0.4-1.4,0
		L68.3,61c-0.4,0.4-0.4,1,0,1.4C68.7,62.8,69.3,62.8,69.7,62.4z"/>
</g>
</svg>
