<?xml version="1.0" encoding="utf-8"?>
<!-- Generator: Adobe Illustrator 28.2.0, SVG Export Plug-In . SVG Version: 6.00 Build 0)  -->
<svg version="1.1" id="Layer_1" xmlns="http://www.w3.org/2000/svg" xmlns:xlink="http://www.w3.org/1999/xlink" x="0px" y="0px"
	 viewBox="0 0 100 100" style="enable-background:new 0 0 100 100;" xml:space="preserve">
<g>
	<path d="M81.9,74V11c0-0.6-0.4-1-1-1H26.1c-4.4,0-8,3.6-8,8v63v1c0,4.4,3.6,8,8,8h54.8c0.3,0,0.7-0.2,0.9-0.5s0.2-0.7,0-1
		c-0.9-1.7-1.4-4.3-1.4-7.1c0-2.7,0.5-5.2,1.3-6.9C81.8,74.4,81.9,74.3,81.9,74z M20.1,18c0-3.3,2.7-6,6-6h53.8v61H26.1
		c-2.4,0-4.5,1.1-6,2.7V18z M26.1,88c-3.3,0-6-2.7-6-6v-1c0-3.3,2.7-6,6-6h53.3c-0.5,1.6-0.8,3.5-0.9,5.4l-48.8,0c-0.6,0-1,0.4-1,1
		c0,0.6,0.4,1,1,1c0,0,0,0,0,0l48.8,0c0.1,2,0.4,3.9,1,5.5H26.1z"/>
	<path d="M35.5,47H68c0.6,0,1-0.4,1-1V23.6c0-0.6-0.4-1-1-1H35.5c-0.6,0-1,0.4-1,1V46C34.5,46.6,35,47,35.5,47z M36.5,24.6H67V45
		H36.5V24.6z"/>
	<path d="M58.5,30.2H45.1c-0.6,0-1,0.4-1,1s0.4,1,1,1h13.5c0.6,0,1-0.4,1-1S59.1,30.2,58.5,30.2z"/>
	<path d="M58.5,37.4H45.1c-0.6,0-1,0.4-1,1s0.4,1,1,1h13.5c0.6,0,1-0.4,1-1S59.1,37.4,58.5,37.4z"/>
</g>
</svg>
