<?xml version="1.0" encoding="utf-8"?>
<!-- Generator: Adobe Illustrator 28.2.0, SVG Export Plug-In . SVG Version: 6.00 Build 0)  -->
<svg version="1.1" id="Layer_1" xmlns="http://www.w3.org/2000/svg" xmlns:xlink="http://www.w3.org/1999/xlink" x="0px" y="0px"
	 viewBox="0 0 100 100" style="enable-background:new 0 0 100 100;" xml:space="preserve">
<g>
	<path d="M70.2,68.8C74,62.4,76,56,76,50c0-6.1-2-12.4-5.8-18.8l9-9c1.1,0.7,2.3,1.1,3.6,1.1c1.6,0,3.2-0.6,4.4-1.8
		c3.2-3.2,2.8-10.3,2.7-10.6c0-0.5-0.4-0.9-0.9-0.9c-0.3,0-7.3-0.6-10.6,2.7c-1.2,1.2-1.8,2.7-1.8,4.4c0,1.3,0.4,2.6,1.2,3.7
		l-8.6,8.6c-1.7-2.6-3.6-5.1-5.9-7.6c-6.3-7-12.5-11.4-12.7-11.5c0,0-0.1,0-0.1-0.1c0,0-0.1,0-0.1-0.1c-0.2-0.1-0.5-0.1-0.7,0
		c0,0-0.1,0-0.1,0.1c0,0-0.1,0-0.1,0.1c-0.3,0.2-6.4,4.5-12.7,11.5c-2.2,2.5-4.2,5.1-5.9,7.6l-8.6-8.6c0.8-1.1,1.2-2.3,1.2-3.7
		c0-1.7-0.6-3.2-1.8-4.4v0C18.2,9.5,11.2,10,10.9,10c-0.5,0-0.9,0.4-0.9,0.9c0,0.3-0.5,7.4,2.7,10.6c1.2,1.2,2.8,1.8,4.4,1.8
		c1.3,0,2.5-0.4,3.6-1.1l9,9c-0.5,0.8-0.9,1.6-1.4,2.4c-0.1,0.1-0.1,0.1-0.1,0.2c-2.9,5.5-4.3,10.9-4.3,16.1
		c0,5.2,1.5,10.7,4.3,16.1c0,0.1,0.1,0.2,0.1,0.2c0.4,0.8,0.9,1.7,1.4,2.5L10.3,88.3c-0.4,0.4-0.4,1,0,1.4c0.2,0.2,0.5,0.3,0.7,0.3
		c0.3,0,0.5-0.1,0.7-0.3l19.1-19.1c1.7,2.5,3.6,5,5.8,7.5c6.3,7,12.4,11.4,12.7,11.5c0.2,0.1,0.4,0.2,0.6,0.2c0.2,0,0.4-0.1,0.6-0.2
		c0.3-0.2,6.4-4.5,12.7-11.5c2.2-2.5,4.2-5.1,5.9-7.6l19.2,19.2c0.2,0.2,0.5,0.3,0.7,0.3c0.3,0,0.5-0.1,0.7-0.3c0.4-0.4,0.4-1,0-1.4
		L70.2,68.8z M79.7,14.2C79.7,14.2,79.7,14.2,79.7,14.2c1.9-1.9,5.8-2.2,7.8-2.2c0.1,0,0.2,0,0.4,0c0,2.2-0.3,6.3-2.2,8.1
		c-1.6,1.6-4.3,1.6-6,0c-0.8-0.8-1.2-1.8-1.2-3C78.5,16,79,15,79.7,14.2z M14.2,20.1C12.3,18.3,12,14.2,12,12c2.2,0,6.2,0.3,8.1,2.2
		c0,0,0,0,0,0c0.8,0.8,1.2,1.8,1.2,3c0,1.1-0.4,2.2-1.2,3C18.5,21.8,15.8,21.8,14.2,20.1z M65,72.8C59,65,56,57.3,56,50
		c0-7.3,3-15,9-22.8c1.6,2.1,3.1,4.4,4.4,6.7c-3.8,5.5-5.7,10.9-5.7,16.1c0,5.2,1.9,10.6,5.7,16.1C68.1,68.5,66.6,70.7,65,72.8z
		 M70.5,64.1c-3.1-4.8-4.7-9.5-4.7-14.1c0-4.5,1.6-9.3,4.7-14.1C72.6,40.3,74,45,74,50C74,54.9,72.6,59.7,70.5,64.1z M30.3,65.8
		c3.6-5.4,5.5-10.7,5.5-15.8c0-5.1-1.9-10.4-5.5-15.8c1.3-2.4,2.8-4.7,4.4-6.8c5.9,7.7,8.8,15.3,8.8,22.6c0,7.3-3,14.9-8.8,22.6
		C33.1,70.5,31.6,68.2,30.3,65.8z M29.3,36.2c3,4.7,4.5,9.3,4.5,13.8c0,4.4-1.5,9.1-4.5,13.8c-2-4.3-3.4-8.9-3.4-13.8
		C25.9,45.2,27.2,40.5,29.3,36.2z M36,74.2c6.3-8.2,9.6-16.4,9.6-24.2c0-7.9-3.2-16-9.6-24.2c4.9-6.1,10.3-10.6,12.9-12.6v73.8
		C46.3,84.9,40.9,80.3,36,74.2z M50.9,86.9V13.1c2.6,2,7.9,6.4,12.8,12.4C57.2,33.8,54,42.1,54,50c0,7.9,3.3,16.2,9.7,24.5
		C58.8,80.4,53.5,84.9,50.9,86.9z"/>
</g>
</svg>
