<svg width="110" height="67" viewBox="0 0 110 67" fill="none" xmlns="http://www.w3.org/2000/svg">
<path d="M76.4805 30.32C76.5765 30.224 77.2485 30.416 76.6725 30.416C76.4805 30.416 76.2885 30.416 76.4805 30.32ZM28.8645 26.672C28.9605 26.672 29.0565 26.672 29.1525 26.672C29.2485 26.864 28.5765 26.768 28.8645 26.672ZM77.3445 31.952C77.5365 31.952 77.5365 32.048 77.4405 32.144C76.6725 32.528 71.9685 32.912 70.4325 33.2C65.1525 33.296 59.0085 34.448 52.7685 34.64C51.1365 34.16 47.3925 35.504 43.1685 34.928C41.9205 34.928 43.0725 35.024 43.4565 35.12C39.3285 35.408 25.2165 35.888 22.0485 35.696C22.0485 35.696 21.0885 35.6 19.8405 35.6C12.5445 35.408 12.7365 35.408 10.4325 35.12C10.6245 35.12 11.0085 35.024 11.2005 34.928C10.5285 34.832 8.5125 35.024 8.3205 34.928C8.3205 34.64 4.6725 34.448 4.1925 34.448C4.0005 34.16 2.7525 34.256 2.9445 33.968C2.0805 33.584 2.2725 33.584 3.5205 33.488C6.4005 33.392 2.7525 33.488 2.4645 33.008C1.9845 32.72 2.7525 32.816 2.2725 32.624C1.5045 32.432 3.1365 32.144 2.4645 32.144C1.9845 32.144 1.3125 31.76 1.3125 31.568C1.3125 31.376 1.3125 31.376 1.4085 31.472C1.6005 31.76 1.9845 31.376 2.1765 31.664C2.1765 31.76 2.2725 31.856 2.4645 31.856C2.4645 31.856 2.4645 31.76 2.4645 31.664C2.5605 31.376 3.0405 31.568 2.1765 31.28C0.448499 30.704 2.4645 31.088 2.8485 30.896C3.2325 30.704 1.6965 30.8 2.4645 30.608C3.0405 30.32 1.3125 30.704 1.5045 30.416C1.4085 30.224 1.9845 30.32 1.8885 30.128C1.7925 30.032 1.8885 29.936 1.8885 29.936C2.1765 29.84 1.9845 30.512 2.2725 30.128C2.9445 29.744 2.6565 30.704 3.2325 30.512C3.5205 30.416 3.5205 30.416 3.4245 30.224C3.0405 30.032 3.9045 30.224 3.4245 30.032C3.1365 29.744 4.2885 29.84 3.1365 29.648C2.3685 29.648 2.5605 29.648 2.3685 29.264C2.1765 29.072 2.9445 28.496 3.0405 28.976C3.8085 29.744 3.4245 28.592 2.6565 28.592C2.4645 28.592 2.3685 28.496 2.4645 28.496C3.2325 28.016 1.6005 28.208 2.2725 28.016C3.0405 27.632 3.4245 27.44 5.1525 27.44C6.0165 27.536 6.3045 27.44 6.2085 27.344C6.2085 27.248 6.4005 27.248 7.3605 27.44C8.0325 27.632 6.6885 27.152 7.9365 27.248C8.7045 27.536 8.8965 26.768 9.1845 27.248C9.1845 27.344 9.1845 27.44 9.3765 27.44C11.4885 27.344 13.4085 26.576 15.7125 26.672C16.3845 26.672 16.7685 26.672 16.9605 26.864C16.9605 27.344 18.6885 26.96 18.8805 27.152C18.6885 27.344 19.0725 27.248 19.0725 27.056C19.5525 26.864 23.2965 26.672 24.8325 26.48C26.3685 26.576 25.5045 26.576 24.9285 26.768C25.4085 26.864 26.7525 26.576 26.8485 26.96C26.7525 27.056 26.5605 27.056 26.3685 27.056C25.6965 27.152 27.1365 27.344 27.0405 27.248C27.2325 27.152 27.9045 27.152 28.0005 27.056C28.0965 26.864 28.0965 26.96 28.2885 27.056C28.4805 27.248 29.5365 27.344 29.4405 27.056C30.2085 26.576 30.4005 27.344 31.5525 27.056C39.9045 26.288 46.8165 27.44 54.9765 27.728C61.7925 27.824 66.1125 28.688 72.3525 29.168C72.6405 29.36 73.8885 29.456 74.1765 29.264C74.2725 29.264 74.3685 29.264 74.2725 29.36C74.1765 29.552 74.8485 29.744 75.0405 29.456C75.0405 29.36 75.1365 29.36 75.2325 29.456C75.3285 29.744 76.4805 29.552 76.5765 29.84C76.6725 29.936 76.6725 29.936 76.7685 29.936C76.9605 29.84 77.5365 30.128 77.5365 30.32C77.1525 30.416 76.5765 30.128 76.0005 30.224C75.4245 30.416 75.4245 30.416 75.8085 30.416C76.3845 30.416 76.2885 30.8 76.8645 30.608C77.1525 30.32 77.5365 30.704 77.8245 30.608C78.2085 30.512 77.7285 31.28 77.5365 31.184C77.4405 31.088 77.4405 31.184 77.3445 31.28C77.2485 31.76 76.6725 30.896 76.4805 31.088C76.2885 31.184 76.2885 31.184 76.4805 31.184C76.7685 31.184 77.0565 31.952 77.3445 31.952ZM2.7525 29.264C2.8485 29.264 2.9445 29.168 2.9445 29.072C2.9445 28.688 2.2725 29.168 2.7525 29.264ZM4.0965 28.976C4.0965 29.072 4.5765 29.072 4.4805 28.88C4.4805 28.688 4.0965 28.976 4.0965 28.976ZM4.1925 29.552C3.9045 29.648 4.8645 29.648 4.5765 29.552C4.4805 29.552 4.2885 29.552 4.1925 29.552ZM25.9845 27.248C26.1765 27.152 24.3525 27.056 24.5445 27.248C24.9285 27.44 25.9845 27.44 25.9845 27.248ZM45.9525 28.016C45.6645 28.112 46.6245 28.112 46.3365 28.016C46.2405 28.016 46.0485 28.016 45.9525 28.016ZM49.0245 28.592C49.2165 28.592 50.5605 28.592 50.4645 28.4C50.2725 28.208 49.3125 28.496 49.0245 28.592ZM50.6565 27.824C50.5605 28.016 51.0405 28.016 51.0405 27.92C51.0405 27.824 50.7525 27.728 50.6565 27.824ZM52.5765 28.016C52.2885 28.112 52.9605 28.208 52.8645 28.112C52.8645 28.016 52.6725 28.016 52.5765 28.016ZM54.1125 28.496C53.8245 28.592 54.4965 28.688 54.4005 28.496C54.4005 28.496 54.2085 28.496 54.1125 28.496ZM61.4085 29.264C60.9285 29.36 62.1765 29.36 61.7925 29.264C61.6965 29.264 61.5045 29.264 61.4085 29.264ZM75.8085 31.088C75.5205 31.184 76.2885 31.28 76.0965 31.184C76.0965 31.088 76.0005 31.088 75.8085 31.088ZM76.4805 31.76C75.6165 31.952 77.2485 32.144 76.9605 31.76C76.8645 31.76 76.6725 31.76 76.4805 31.76ZM1.9845 33.68C1.7925 33.488 2.0805 33.296 2.0805 33.584C2.2725 33.872 2.1765 33.872 1.9845 33.68ZM102.053 30.32C102.149 30.032 102.533 30.32 102.533 30.416C102.533 30.512 102.053 30.512 102.053 30.32ZM102.629 29.264C102.437 29.264 102.725 29.648 103.013 29.744C103.109 29.744 103.013 29.84 102.821 29.84C102.245 29.936 102.629 29.648 102.437 29.552C102.149 29.552 102.341 30.032 102.053 30.032C93.7005 32.336 86.6925 32.528 77.5725 33.488C76.9965 33.296 65.0925 34.928 68.1645 34.064C68.5485 34.064 68.5485 34.064 67.7805 34.064C63.9405 34.832 60.3885 34.544 56.5485 34.832C55.5885 34.928 54.8205 34.736 54.3405 35.12C54.2445 35.408 47.7165 35.12 47.7165 35.504C47.7165 35.792 45.3165 35.504 45.2205 35.696C45.1245 35.792 43.6845 35.888 43.4925 35.696C43.3965 35.504 42.8205 35.504 42.8205 35.696C42.8205 35.888 41.7645 35.792 41.6685 35.696C41.8605 34.832 40.4205 35.696 40.4205 34.928C40.1325 34.256 39.1725 33.68 39.1725 34.16C39.1725 34.256 39.0765 34.256 38.9805 34.16C38.5965 33.584 39.2685 33.68 39.6525 33.68C39.4605 33.584 38.9805 33.488 38.7885 33.392C38.9805 33.392 39.7485 33.392 39.7485 33.2C39.6525 32.912 38.9805 33.392 39.0765 32.72C39.0765 32.24 39.0765 33.008 39.4605 32.816C39.7485 32.72 39.7485 32.72 39.5565 32.528C39.4605 32.432 39.4605 32.432 39.7485 32.528C40.2285 32.624 39.9405 31.952 39.5565 32.24C39.2685 32.432 38.3085 31.952 38.8845 31.856C39.0765 31.856 39.5565 31.76 39.8445 31.568C39.6525 31.568 39.2685 31.472 39.0765 31.376C39.8445 31.472 40.1325 31.088 39.5565 30.608C39.3645 30.608 39.6525 30.128 39.4605 30.128C39.0765 30.128 39.7485 29.936 39.5565 29.744C39.6525 28.976 40.1325 29.168 40.3245 28.688C40.4205 28.304 40.8045 28.208 41.6685 28.208C43.0125 27.728 43.3005 27.92 45.7965 27.824C50.9805 27.344 50.4045 28.208 53.1885 27.824C53.1885 27.632 56.5485 27.632 56.3565 27.92C56.4525 28.112 56.3565 28.112 56.0685 28.112C55.3005 27.824 55.5885 28.976 56.0685 28.88C56.1645 28.784 56.2605 28.88 56.3565 28.88C56.5485 29.072 58.4685 29.072 58.4685 28.784C58.8525 28.304 58.3725 29.36 58.6605 29.072C59.2365 28.976 62.9805 28.976 63.0765 28.688C63.0765 28.688 62.8845 28.592 62.6925 28.592C61.8285 28.4 61.7325 28.304 59.9085 28.304C58.1805 28.304 57.7005 28.304 57.7965 28.496C57.8925 28.688 57.7965 28.688 57.6045 28.496C57.5085 28.208 56.8365 28.592 57.0285 28.4C57.0285 28.208 57.0285 28.208 56.9325 28.208C56.8365 28.208 56.7405 28.208 56.7405 28.304C56.7405 28.496 56.1645 28.592 56.5485 28.208C56.3565 27.632 62.5965 28.112 62.7885 27.92C62.7885 27.632 60.0045 27.92 60.4845 27.536C60.5805 27.536 61.6365 27.44 62.8845 27.44C64.8045 27.44 65.0925 27.152 65.8605 27.248C65.8605 27.344 67.8765 27.248 67.8765 27.44C67.7805 27.536 67.8765 27.536 67.9725 27.44C68.1645 27.344 69.5085 27.344 69.8925 27.44C70.2765 27.536 72.0045 27.344 71.8125 27.248C71.3325 26.96 74.4045 27.344 75.3645 27.728C74.6925 27.536 73.9245 27.632 73.5405 27.824C73.2525 27.824 73.2525 27.824 73.4445 27.728C73.9245 27.44 69.2205 27.632 70.4685 28.016C71.3325 28.304 69.1245 28.208 69.2205 28.016C69.3165 27.92 69.2205 27.824 69.1245 27.824C68.9325 27.728 68.8365 27.824 68.9325 27.92C69.0285 28.208 68.8365 28.208 67.3965 28.112C66.0525 28.016 65.9565 28.304 65.6685 28.208C65.3805 27.92 65.9565 27.44 65.5725 27.632C65.4765 27.728 65.3805 27.824 65.3805 27.92C65.3805 28.112 61.8285 27.824 64.0365 28.208C64.4205 28.208 64.1325 28.208 63.4605 28.304C62.3085 28.4 62.5005 28.4 64.6125 28.4C67.1085 28.496 67.5885 28.496 67.9725 28.688C68.2605 28.88 68.4525 28.592 68.6445 28.784C68.6445 28.88 68.8365 28.88 68.9325 28.88C69.2205 28.88 68.9325 28.592 69.2205 28.592C69.6045 28.688 69.6045 28.976 69.9885 28.88C70.5645 28.88 69.7005 28.688 69.5085 28.688C69.7965 28.592 70.3725 28.592 70.4685 28.784C70.4685 28.88 71.4285 29.072 71.0445 28.784C70.8525 28.688 70.8525 28.592 71.0445 28.592C71.4285 28.592 71.3325 28.976 71.8125 28.88C72.1965 28.88 72.1965 28.88 71.8125 28.784C71.6205 28.688 72.0045 28.592 73.0605 28.592C74.5005 28.688 77.4765 28.4 76.5165 28.304C75.7485 28.304 75.8445 28.016 76.6125 28.016C77.5725 28.016 77.0925 27.728 78.0525 27.728C78.6285 27.632 78.7245 27.632 78.2445 27.536C78.4365 27.344 81.5085 27.632 82.1805 27.44C83.3325 27.152 83.8125 27.632 84.1005 27.344C84.1965 27.056 85.8285 26.96 85.9245 27.248C85.9245 27.344 86.1165 27.344 86.5005 27.248C88.0365 27.152 95.8125 27.152 97.5405 27.536C97.6365 27.536 98.1165 27.632 98.6925 27.632C99.6525 27.536 99.6525 27.632 99.3645 27.824C98.9805 28.016 98.9805 28.016 99.5565 28.016C100.229 28.016 99.8445 27.824 100.133 27.728C100.421 27.728 100.421 27.728 100.229 28.016C99.9405 28.304 99.1725 28.208 98.7885 28.112C98.9805 28.4 99.7485 28.688 99.2685 28.976C99.0765 29.072 99.0765 29.264 99.1725 29.264C99.3645 29.264 99.7485 28.304 99.9405 28.784C100.133 28.88 100.133 28.976 99.8445 28.88C99.6525 28.784 99.5565 28.784 99.7485 28.976C100.037 29.264 100.229 28.688 100.613 28.784C101.381 28.784 99.8445 29.072 100.805 29.072C101.573 29.168 102.245 29.072 103.013 29.072C103.397 29.168 103.397 29.168 103.109 29.264C102.917 29.264 102.725 29.264 102.629 29.264ZM70.1805 27.92C70.2765 27.728 69.6045 27.728 69.7005 27.92C69.7965 28.016 69.9885 28.016 70.1805 27.92ZM68.2605 27.728C67.8765 27.728 68.6445 28.208 68.4525 27.824C68.4525 27.824 68.3565 27.728 68.2605 27.728ZM65.0925 27.728C65.1885 27.536 64.9005 27.536 64.9005 27.728C64.9005 27.92 64.9965 27.824 65.0925 27.728ZM64.5165 27.728C64.6125 27.536 64.2285 27.536 64.2285 27.728C64.3245 27.92 64.4205 27.824 64.5165 27.728ZM39.5565 31.952C39.6525 31.76 39.2685 31.76 39.2685 31.952C39.3645 32.24 39.4605 32.144 39.5565 31.952ZM42.0525 35.216C41.7645 35.312 42.7245 35.312 42.4365 35.216C42.3405 35.216 42.1485 35.216 42.0525 35.216ZM42.3405 35.504C42.0525 35.6 42.7245 35.696 42.6285 35.6C42.6285 35.504 42.4365 35.504 42.3405 35.504ZM40.9965 34.928C40.7085 35.024 43.3005 35.024 43.1085 34.928C42.9165 34.736 41.1885 34.736 40.9965 34.928ZM43.1085 35.216C42.8205 35.312 43.4925 35.408 43.3965 35.312C43.3965 35.216 43.2045 35.216 43.1085 35.216ZM55.2045 28.112C55.0125 28.4 55.3965 28.304 55.3965 28.112C55.5885 27.728 55.2045 27.824 55.2045 28.112ZM53.5725 27.92C53.1885 28.016 54.3405 28.016 54.0525 27.92C53.9565 27.824 53.7645 27.824 53.5725 27.92ZM54.8205 28.688C55.0125 28.592 55.5885 29.072 55.4925 28.688C55.6845 28.4 52.9005 28.4 54.2445 28.4C55.0125 28.304 55.3005 27.92 54.6285 27.92C54.4365 27.92 54.3405 27.92 54.4365 28.016C54.1485 28.304 51.6525 28.112 50.9805 28.4C51.4605 28.4 52.3245 28.496 52.7085 28.496L52.0365 28.592C50.7885 28.784 54.5325 28.688 54.2445 28.784C54.4365 28.976 54.5325 28.592 54.8205 28.688ZM59.9085 29.264C59.6205 29.36 60.3885 29.456 60.2925 29.264C60.1965 29.264 60.1005 29.264 59.9085 29.264ZM64.0365 28.784C63.8445 28.88 64.5165 28.976 64.4205 28.784V28.88C64.3245 28.784 64.2285 28.784 64.0365 28.784ZM64.7085 28.784C64.4205 28.88 65.0925 28.976 64.9965 28.784V28.88C64.9965 28.784 64.8045 28.784 64.7085 28.784ZM65.2845 28.784C64.9965 28.88 65.7645 28.976 65.5725 28.784V28.88C65.5725 28.784 65.3805 28.784 65.2845 28.784ZM75.4605 32.24C75.5565 32.144 75.5565 32.048 75.5565 31.952C75.5565 31.472 75.0765 32.24 75.4605 32.24ZM77.6685 27.92C77.1885 28.016 78.8205 28.016 78.4365 27.92C78.2445 27.824 77.8605 27.824 77.6685 27.92ZM78.6285 31.28C78.3405 31.376 79.3005 31.376 79.0125 31.28C78.9165 31.184 78.7245 31.184 78.6285 31.28ZM79.9725 31.088C79.6845 31.184 80.4525 31.28 80.2605 31.184C80.2605 31.088 80.1645 31.088 79.9725 31.088ZM81.8925 28.016C81.5085 28.112 82.6605 28.112 82.3725 28.016C82.2765 28.016 82.0845 28.016 81.8925 28.016ZM98.9805 28.592C98.6925 28.688 99.1725 29.168 99.1725 28.784C99.1725 28.688 99.0765 28.592 98.9805 28.592ZM98.2125 30.512C97.9245 30.608 98.8845 30.608 98.5965 30.512C98.5005 30.416 98.3085 30.416 98.2125 30.512ZM99.1725 30.416C99.4605 30.416 99.5565 30.416 99.3645 30.224C99.1725 29.936 98.5965 30.512 99.1725 30.416ZM98.5005 29.552C98.7885 29.648 99.6525 30.032 99.4605 29.648C99.5565 29.168 98.7885 29.552 98.5005 29.552ZM100.517 29.648C100.709 29.648 100.709 29.648 100.517 29.552C100.229 29.264 99.6525 29.36 99.6525 29.648C99.6525 30.032 100.325 29.456 100.517 29.648ZM100.901 29.36C101.573 29.552 101.765 29.552 101.477 29.36C101.381 29.264 100.037 29.168 100.901 29.36ZM49.5405 35.504C49.3485 35.216 50.9805 35.696 50.0205 35.696C49.7325 35.696 49.5405 35.6 49.5405 35.504ZM48.8685 35.696C48.9645 35.696 49.1565 35.696 49.3485 35.696C49.6365 35.792 48.4845 35.792 48.8685 35.696ZM76.9005 27.44C76.9965 27.44 77.1885 27.44 77.2845 27.44C77.6685 27.536 76.4205 27.536 76.9005 27.44ZM102.437 28.304C102.245 28.4 101.189 28.496 101.285 28.4C101.285 28.4 102.725 28.112 102.437 28.304ZM103.109 28.208C103.205 28.016 103.301 27.92 103.301 28.208C103.301 28.304 103.013 28.4 103.109 28.208ZM52.1325 27.728C52.2285 27.728 52.4205 27.728 52.4205 27.824C52.5165 27.92 51.8445 27.824 52.1325 27.728ZM59.9085 27.536C59.8125 27.344 60.1005 27.344 60.1005 27.536C60.1005 27.728 60.0045 27.728 59.9085 27.536ZM75.0765 28.016C75.1725 28.016 75.3645 28.016 75.3645 28.112C75.5565 28.208 74.7885 28.112 75.0765 28.016ZM51.3645 27.632C51.5565 27.536 52.1325 27.632 51.5565 27.632C51.3645 27.632 51.2685 27.632 51.3645 27.632ZM55.7805 28.304C55.8765 28.304 56.0685 28.304 56.0685 28.4C56.2605 28.496 55.4925 28.496 55.7805 28.304ZM73.2525 28.016C73.3485 28.016 73.5405 28.016 73.6365 28.016C73.9245 28.112 72.9645 28.112 73.2525 28.016ZM109.577 27.152C109.865 28.016 109.193 29.168 109.289 30.32C109.577 30.416 107.177 33.104 107.465 31.952C107.657 31.472 107.081 32.144 106.985 31.952C106.889 31.856 106.217 32.72 106.313 32.912C106.409 33.008 106.409 33.008 106.313 32.912C106.121 32.72 105.545 33.68 105.449 33.392C105.257 33.2 105.833 33.104 105.737 32.912C105.545 32.72 103.913 34.544 103.817 34.352C104.201 34.64 103.049 35.024 103.049 35.408C103.049 35.696 102.665 35.312 102.761 35.696C102.761 36.272 102.377 35.216 102.377 35.696C102.473 35.888 101.897 36.368 102.089 36.272C102.185 36.176 102.281 36.176 102.185 36.272C102.089 36.56 101.705 36.368 101.609 36.656C101.609 36.752 101.705 36.752 101.801 36.752C102.089 36.56 101.705 37.04 101.609 36.848C101.225 36.656 101.801 37.424 101.321 37.232C101.129 37.136 101.033 37.136 101.129 37.232C101.321 37.232 100.073 38.48 100.265 38.384C100.457 38.288 100.457 38.288 100.265 38.48C100.169 38.768 99.6885 38.576 99.8805 38.672C99.9765 38.864 99.6885 39.248 99.4965 39.152C99.3045 39.056 98.6325 39.728 98.7285 39.92C98.7285 39.92 98.7285 40.016 98.6325 39.92C98.5365 39.92 98.3445 40.016 98.2485 40.208C97.8645 40.688 97.8645 40.4 97.0965 41.264C95.9445 42.416 95.6565 42.32 94.8885 42.8C94.0245 43.664 93.9285 43.76 92.4885 45.104C90.4725 46.928 88.8405 48.08 87.0165 49.424C86.1525 49.328 85.9605 50.576 85.0965 50.864C82.3125 53.36 78.0885 56.624 75.4005 59.6C74.9205 59.696 72.4245 62.672 71.8485 62.48C71.5605 62.576 71.5605 62.576 71.8485 62.288C72.3285 61.904 71.7525 62.096 71.5605 62.384C70.9845 62.864 71.4645 62.192 71.0805 62.576C70.7925 62.96 70.9845 63.056 70.6005 63.248C70.4085 63.248 70.2165 63.344 70.2165 63.44C70.2165 63.536 70.4085 63.536 70.5045 63.44C71.2725 63.248 69.8325 64.112 69.6405 64.208L69.7365 63.728C69.8325 63.344 69.3525 63.152 69.4485 63.536C69.4485 63.632 69.4485 63.728 69.3525 63.632C69.1605 63.536 67.8165 64.304 68.3925 64.496C68.6805 64.4 68.5845 64.112 68.9685 64.016C69.0645 63.92 69.1605 63.92 69.1605 64.016C68.9685 64.208 69.5445 64.4 69.0645 64.304C68.8725 64.208 68.7765 64.208 68.7765 64.304C68.8725 64.688 68.1045 64.784 68.1045 64.304C68.2965 63.728 67.1445 64.592 67.0485 64.4C67.0485 64.304 66.8565 64.304 66.7605 64.304C65.9925 64.208 67.3365 64.688 66.6645 64.688C66.5685 64.688 66.4725 64.688 66.4725 64.784C66.3765 65.072 65.9925 64.88 65.8965 65.264C65.8965 65.456 65.8965 65.456 65.8005 65.264C65.7045 65.072 65.7045 64.88 65.7045 64.784C65.8005 64.592 65.3205 64.88 65.4165 64.976C65.5125 65.168 64.4565 65.168 65.3205 64.784C66.3765 64.112 65.7045 64.976 66.0885 64.88C66.3765 64.784 66.0885 64.208 66.2805 64.208C66.3765 64.208 66.3765 64.112 66.3765 64.016C66.1845 63.824 66.6645 64.016 66.7605 63.824C67.1445 63.152 65.9925 64.016 65.8005 63.92C65.6085 63.824 65.7045 64.304 65.4165 64.112C65.0325 63.92 65.3205 64.592 64.9365 64.208C64.8405 64.112 64.7445 64.016 64.5525 64.112C64.0725 64.4 65.2245 63.344 64.9365 63.248C64.6485 63.248 64.9365 62.864 64.7445 62.672C64.5525 62.576 64.6485 62.48 64.8405 62.48C65.4165 62.48 65.1285 61.808 65.7045 61.808C65.7045 61.52 66.7605 60.56 66.8565 60.56C67.1445 60.656 67.5285 60.56 67.1445 60.272C66.9525 60.176 66.9525 60.08 67.0485 60.08C67.1445 59.984 67.6245 60.656 67.6245 60.176C67.4325 60.08 67.9125 59.792 67.7205 59.984C67.7205 60.176 67.7205 60.176 67.8165 60.176C68.3925 60.08 69.8325 58.064 70.1205 57.872C70.0245 57.68 69.3525 57.872 69.4485 58.064C69.4485 58.256 69.4485 58.352 69.3525 58.256C69.1605 58.16 69.0645 58.736 68.8725 58.64C68.6805 58.448 68.7765 59.024 68.5845 59.024C68.3925 59.024 68.1045 58.928 68.0085 59.312C68.0085 59.408 68.0085 59.408 68.2005 59.408C68.2965 59.216 68.2965 59.312 68.1045 59.504C67.8165 59.888 67.8165 59.504 67.5285 59.792C67.3365 59.984 67.2405 59.792 67.5285 59.6C68.0085 59.12 68.6805 57.968 68.4885 57.968C68.4885 57.872 67.7205 59.216 67.8165 58.64C67.8165 58.448 68.0085 58.064 68.1045 57.968C68.4885 57.584 68.2005 57.2 68.8725 57.2C69.1605 57.2 69.1605 57.104 69.0645 57.008C68.6805 56.912 69.4485 56.048 69.6405 56.048C70.1205 55.856 69.7365 55.568 70.0245 55.28C70.6005 54.8 69.7365 55.76 70.3125 55.376C70.6965 55.184 70.2165 54.704 70.6005 54.992C70.7925 55.088 70.7925 55.088 70.9845 54.608C71.3685 53.552 72.7125 51.92 73.0965 51.92C73.1925 52.016 73.6725 51.536 73.2885 51.728C73.7685 50.96 75.0165 49.136 75.6885 48.368C76.2645 47.696 76.3605 47.984 77.0325 47.312C77.5125 47.024 77.3205 46.64 77.8005 46.544C78.3765 46.64 79.2405 45.68 79.2405 45.392C79.5285 45.296 80.6805 44.24 80.4885 43.952C80.3925 43.664 80.3925 43.664 80.4885 43.856C80.7765 44.24 80.6805 43.376 80.6805 43.376C80.5845 43.184 81.5445 42.704 81.5445 42.896C81.6405 43.088 82.1205 42.896 82.0245 42.704C82.0245 42.416 83.1765 41.744 82.5045 42.608C81.9285 43.376 83.7525 41.648 83.5605 41.744C82.6005 42.512 82.8885 41.552 83.6565 41.648C83.7525 41.84 85.6725 39.536 85.3845 40.688C85.1925 41.168 85.8645 40.496 85.9605 40.4C86.0565 40.4 86.0565 40.4 86.0565 40.304C86.0565 40.304 86.0565 40.304 85.9605 40.4C85.1925 40.688 85.1925 39.248 85.7685 39.44C85.8645 39.536 86.0565 39.44 86.2485 39.248C87.4965 38.288 87.6885 38.864 86.9205 39.632C87.1125 39.44 87.5925 39.056 87.4965 38.768C87.4005 38.576 87.4965 38.48 87.7845 38.48C87.9765 38.576 88.2645 38.48 88.2645 38.384C88.3605 38.096 88.0725 38.48 87.9765 38.48C87.7845 38.48 88.2645 37.712 88.1685 37.616C88.1685 37.232 88.9365 36.848 89.1285 36.752C89.4165 36.272 89.1285 36.176 89.8965 35.792C90.9525 34.928 91.1445 34.832 92.1045 33.968C92.6805 33.296 93.5445 32.912 93.6405 32.432C93.7365 32.432 93.9285 32.336 94.1205 32.048C94.6965 31.088 95.6565 30.416 95.9445 30.032C96.7125 29.264 98.0565 28.688 98.5365 28.4C99.6885 28.016 97.3845 27.728 97.0965 27.536C96.8085 27.344 96.8085 27.344 97.1925 27.44C98.2485 27.728 96.6165 26.768 96.3285 26.864C95.9445 26.864 95.0805 25.904 94.7925 25.904C93.9285 25.712 92.3925 24.272 91.6245 23.792C91.2405 23.696 90.4725 22.256 90.2805 22.64C90.3765 22.544 88.2645 20.816 87.7845 20.72C87.4005 20.432 85.9605 19.28 85.6725 19.472C85.5765 19.472 85.5765 19.472 85.5765 19.376C84.2325 18.416 81.9285 17.168 80.5845 16.592C76.1685 13.904 72.1365 11.6 68.1045 8.912C68.0085 8.816 67.8165 8.62399 67.8165 8.528C68.0085 7.472 66.1845 7.664 66.5685 6.512C66.7605 5.936 65.4165 5.36 65.8965 4.88C66.1845 4.68799 65.6085 5.264 65.9925 4.976C66.1845 4.976 65.8965 4.4 66.1845 4.592C66.5685 4.68799 66.6645 4.20799 66.3765 3.92C66.1845 3.824 66.0885 3.72799 66.2805 3.824C66.5685 3.92 66.4725 3.632 65.9925 3.152C65.2245 2.672 66.3765 2.47999 65.7045 2.576C65.1285 2.768 65.5125 2.288 65.8005 2.384C66.0885 2.288 65.8005 2.096 66.2805 2.096C66.4725 2.192 67.5285 1.808 67.6245 1.99999C67.8165 2.672 68.4885 1.616 67.8165 1.616C67.7205 1.51999 67.6245 1.51999 67.8165 1.424C67.9125 1.328 68.4885 1.808 68.6805 1.616C68.7765 1.424 68.1045 1.328 68.3925 1.04C68.7765 0.847998 70.4085 1.616 70.4085 0.751999C70.7925 0.0799961 72.5205 0.847998 73.2885 1.232C75.0165 1.904 76.5525 3.248 77.8965 4.304C80.5845 6.128 82.9845 7.952 84.8085 9.2C84.8085 9.008 85.2885 9.584 85.1925 9.392C85.0005 9.008 86.1525 9.776 86.0565 9.872C86.0565 9.96799 86.1525 9.96799 86.1525 9.872C87.2085 9.96799 92.4885 13.136 92.7765 14C92.5845 14.096 93.9285 15.248 93.4485 15.152C93.0645 14.96 93.4485 15.44 93.6405 15.344C94.3125 15.056 94.3125 16.88 95.1765 16.592C95.1765 16.496 95.2725 16.496 95.3685 16.496C95.5605 16.592 95.3685 16.112 95.1765 15.824C94.5045 15.248 95.2725 16.88 94.4085 16.016C94.3125 15.824 94.3125 15.824 94.5045 15.824C95.1765 15.536 94.1205 15.44 93.8325 14.96C93.1605 14.288 93.3525 14.288 94.4085 15.056C94.7925 15.344 95.2725 15.632 95.2725 15.632C95.3685 15.632 95.5605 15.728 95.7525 15.92C97.0005 17.072 97.1925 17.264 97.0965 17.36C97.0965 17.552 96.8085 17.264 96.7125 17.456C96.7125 17.648 96.9045 17.648 97.1925 17.456C97.0965 17.072 100.649 19.568 100.649 19.28C100.745 19.184 100.841 19.184 100.841 19.28C102.665 20.624 106.697 22.256 107.849 23.696C107.561 23.888 107.849 24.176 107.945 23.888C108.137 23.504 109.577 25.04 109.001 24.752C108.809 24.656 109.385 25.616 109.289 25.616C109.289 25.904 109.481 26.672 109.577 27.152ZM67.0485 6.704C66.6645 6.608 67.0485 7.184 67.2405 6.89599C67.2405 6.8 67.1445 6.704 67.0485 6.704ZM67.6245 6.32C66.8565 5.84 67.5285 6.608 67.8165 6.512C67.8165 6.512 67.8165 6.41599 67.6245 6.32ZM67.4325 6.89599C67.2405 7.088 68.2005 7.75999 67.7205 7.088C67.6245 6.89599 67.4325 6.8 67.4325 6.89599ZM67.0485 4.496C66.4725 4.496 68.1045 5.36 68.2005 5.36C68.2005 5.36 68.2005 5.168 68.1045 4.976C68.0085 4.496 67.3365 4.784 67.2405 4.592C67.2405 4.496 67.1445 4.496 67.0485 4.496ZM67.9125 3.152C67.6245 3.248 68.2965 3.34399 68.2005 3.152C68.2005 3.152 68.0085 3.152 67.9125 3.152ZM95.6565 16.496C95.5605 16.688 97.1925 17.744 96.2325 16.784C95.9445 16.592 95.7525 16.496 95.6565 16.496ZM68.9685 57.584C69.0645 57.008 68.4885 57.584 68.7765 57.776C68.7765 57.776 68.8725 57.68 68.9685 57.584ZM66.6645 61.616C66.6645 61.52 66.6645 61.52 66.4725 61.52C65.9925 61.712 66.5685 61.904 66.6645 61.616ZM67.4325 64.112C68.1045 63.728 66.4725 63.824 66.5685 64.112C66.5685 64.304 66.8565 64.208 66.9525 64.016C67.0485 63.92 67.1445 63.92 67.2405 63.92C67.4325 63.92 67.0485 64.208 67.4325 64.112ZM67.2405 63.248C66.7605 63.44 67.3365 63.536 67.4325 63.248C67.4325 63.248 67.4325 63.152 67.2405 63.248ZM67.6245 60.752C67.8165 60.848 67.8165 60.848 67.7205 60.656C67.5285 60.368 66.8565 61.04 66.8565 61.232C66.9525 61.328 67.4325 60.656 67.6245 60.752ZM68.4885 63.536C68.5845 63.44 68.5845 63.344 68.4885 63.248C68.1045 62.768 68.1045 63.536 68.4885 63.536ZM69.9285 63.728C70.0245 63.728 70.1205 63.632 70.1205 63.632C70.1205 63.152 69.6405 63.728 69.9285 63.728ZM70.5045 55.664C70.6005 55.376 70.2165 55.664 70.2165 55.76C70.2165 56.048 70.4085 55.952 70.5045 55.664ZM71.9445 59.024C72.4245 58.448 71.6565 59.216 71.6565 59.216C71.6565 59.408 71.7525 59.312 71.9445 59.024ZM72.8085 52.688C72.9045 52.496 72.5205 52.496 72.5205 52.688C72.6165 52.976 72.7125 52.88 72.8085 52.688ZM72.9045 52.4C72.9045 52.4 73.0005 52.304 73.0005 52.208C73.0005 51.824 72.6165 52.4 72.9045 52.4ZM77.8965 47.312C77.8965 47.408 78.8565 46.256 78.3765 46.736C77.8965 47.12 78.1845 46.448 77.8965 46.736C77.8005 46.832 77.6085 46.832 77.6085 46.832C77.6085 46.736 77.5125 46.928 77.5125 47.12C77.4165 47.696 77.7045 46.832 77.9925 46.928C78.1845 46.832 77.7045 47.312 77.8965 47.312ZM82.9845 42.992C83.0805 43.088 83.6565 42.416 83.8485 42.224C83.2725 42.8 82.6005 42.896 82.1205 43.568C82.3125 43.472 82.8885 42.896 82.9845 42.992ZM86.4405 40.016C86.5365 39.824 86.2485 39.632 86.2485 39.92C86.2485 40.208 86.3445 40.208 86.4405 40.016ZM88.3605 37.616C88.4565 37.712 88.8405 37.424 88.7445 37.328C88.8405 36.848 88.2645 37.616 88.3605 37.616ZM88.9365 37.808L89.1285 37.52C89.0325 37.616 88.1685 38.48 88.6485 38.288C88.7445 38.192 88.8405 38 88.9365 37.808ZM94.9845 42.128C95.6565 41.36 94.6005 42.32 94.6005 42.416C94.6965 42.416 94.7925 42.32 94.9845 42.128ZM97.6725 39.824C97.8645 39.728 97.9605 39.536 97.9605 39.44C97.8645 39.44 97.6725 39.536 97.4805 39.728C97.0965 40.208 97.1925 40.304 97.6725 39.824ZM98.9205 38.48C99.4965 37.904 97.9605 39.056 98.6325 38.96C98.8245 38.96 98.9205 38.864 98.8245 38.864C98.8245 38.768 98.8245 38.672 98.9205 38.48ZM105.737 32.72C105.833 33.2 106.409 32.432 106.313 32.336C106.217 32.048 105.737 32.72 105.833 32.528C105.929 32.432 105.929 32.336 105.737 32.336C105.641 32.336 105.641 32.432 105.737 32.72ZM66.1845 6.41599C66.3765 6.704 66.1845 6.89599 66.0885 6.512C65.9925 6.32 65.9925 6.32 66.1845 6.41599ZM86.5365 38.864C86.3445 39.056 85.8645 39.152 85.9605 38.96C85.9605 38.864 86.8245 38.576 86.5365 38.864ZM87.9765 37.616C88.0725 37.712 87.4005 38.288 87.4005 37.904C87.4005 37.808 87.4965 37.712 87.4965 37.808C87.5925 37.904 87.9765 37.52 87.9765 37.616ZM87.1125 38.096C87.3045 38.288 86.9205 38.672 87.0165 38.288C87.0165 38.096 87.1125 38.096 87.1125 38.096ZM64.6485 62.192C64.6485 62.096 64.6485 62.096 64.8405 62.096C65.3205 62.384 64.8405 62.48 64.6485 62.192ZM66.6645 1.328C65.9925 0.847998 67.0485 1.424 67.0485 1.51999C67.0485 1.616 66.9525 1.616 66.6645 1.328ZM67.2405 1.424C67.1445 1.232 67.5285 1.232 67.5285 1.424C67.5285 1.616 67.3365 1.616 67.2405 1.424ZM66.1845 65.552C66.5685 65.264 65.8965 66.224 65.7045 65.84C65.7045 65.648 66.1845 65.744 66.1845 65.552ZM104.393 34.064C104.681 33.776 105.161 33.488 105.161 33.68C105.257 33.776 104.009 34.544 104.393 34.064ZM64.1685 63.344C64.0725 63.344 64.9365 62.672 64.4565 63.152C64.2645 63.44 64.1685 63.536 64.1685 63.344ZM85.9605 40.4C86.0565 40.304 86.0565 40.304 86.0565 40.304C86.0565 40.4 86.0565 40.4 85.9605 40.4Z" fill="white"/>
</svg>
